<svg width="24" height="24" viewBox="0 0 24 24" fill="none" xmlns="http://www.w3.org/2000/svg">
<path fill-rule="evenodd" clip-rule="evenodd" d="M20 8.01673L14 2.76302C12.8612 1.74566 11.1388 1.74566 10 2.76302L4.00009 8.01673C3.35754 8.59072 2.99324 9.41304 3.00009 10.274V19.0036C3.00009 20.6585 4.34323 22 6.00007 22H18C19.6568 22 21 20.6585 21 19.0036V10.264C21.0039 9.40653 20.6399 8.5884 20 8.01673ZM14 20.0024H10V15.0084C10 14.4567 10.4478 14.0096 11 14.0096H13C13.5523 14.0096 14 14.4567 14 15.0084V20.0024ZM18 20.0024C18.5523 20.0024 19 19.5552 19 19.0036V10.264C18.9996 9.97716 18.8758 9.70428 18.66 9.51494L12.66 4.27121C12.2825 3.93996 11.7175 3.93996 11.34 4.27121L5.34008 9.51494C5.1243 9.70428 5.00044 9.97716 5.00008 10.264V19.0036C5.00008 19.5552 5.44779 20.0024 6.00007 20.0024H8.00006V15.0084C8.00006 13.3535 9.3432 12.012 11 12.012H13C14.6569 12.012 16 13.3535 16 15.0084V20.0024H18Z" fill="#CDCED1"/>
</svg>
