<svg width="160" height="104" viewBox="0 0 160 104" fill="none" xmlns="http://www.w3.org/2000/svg">
<path d="M75.9749 75.2949C75.9749 75.2949 89.6893 104.405 129.363 95.2389C129.363 95.2389 125.165 91.5999 129.363 86.7022L96.1275 72.2175L75.9749 75.2949Z" fill="url(#paint0_linear_0_197)"/>
<path d="M77.2408 75.7389C77.2408 75.7389 90.3044 103.467 128.098 94.7344C128.098 94.7344 124.098 91.2683 128.098 86.6023L96.436 72.8059L77.2408 75.7389Z" fill="url(#paint1_linear_0_197)"/>
<circle cx="82.5736" cy="46.9442" r="31.8612" fill="url(#paint2_linear_0_197)"/>
<circle cx="82.5736" cy="46.9443" r="30.5294" fill="url(#paint3_linear_0_197)"/>
<path fill-rule="evenodd" clip-rule="evenodd" d="M35.7819 46.9443C35.7819 21.1023 56.7315 0.152649 82.5736 0.152649C108.416 0.152649 129.365 21.1023 129.365 46.9443C129.365 72.7863 108.416 93.7359 82.5736 93.7359C56.7315 93.7359 35.7819 72.7863 35.7819 46.9443ZM114.42 28.5576C111.427 23.373 104.798 21.5958 99.6132 24.5879V24.5897C97.1229 26.0271 95.3056 28.3949 94.5613 31.1722C93.817 33.9495 94.2066 36.9088 95.6443 39.3988C98.6384 44.5827 105.268 46.3582 110.452 43.3648C115.636 40.3713 117.413 33.7423 114.42 28.5576ZM65.5339 69.2989C61.737 71.4915 56.993 71.181 53.5143 68.512C50.0355 65.8431 48.5072 61.3413 49.6418 57.1061C50.7765 52.8708 54.3508 49.7362 58.6979 49.1638C63.045 48.5915 67.3088 50.6942 69.501 54.4915C72.4941 59.676 70.718 66.3051 65.5339 69.2989ZM58.6979 44.7265C63.045 45.2988 67.3088 43.1961 69.501 39.3988C72.4941 34.2144 70.718 27.5852 65.5339 24.5915C61.737 22.3988 56.993 22.7094 53.5143 25.3783C50.0355 28.0473 48.5072 32.549 49.6418 36.7842C50.7765 41.0195 54.3508 44.1542 58.6979 44.7265ZM82.5718 83.7193C76.5848 83.7193 71.7315 78.8659 71.7315 72.879C71.7315 66.8921 76.5848 62.0387 82.5718 62.0387C88.5587 62.0387 93.4121 66.8921 93.4121 72.879C93.4111 78.8646 88.5591 83.7165 82.5736 83.7175L82.5718 83.7193ZM82.5735 39.5344C78.7844 39.5344 75.7128 42.606 75.7128 46.3951C75.7128 50.1842 78.7844 53.2559 82.5735 53.2559C86.3626 53.2559 89.4343 50.1842 89.4343 46.3951C89.4343 42.606 86.3626 39.5344 82.5735 39.5344ZM82.5735 31.8499C78.1891 31.8499 74.2363 29.2087 72.5584 25.158C70.8805 21.1072 71.808 16.4446 74.9083 13.3443C78.0086 10.244 82.6712 9.31653 86.722 10.9944C90.7727 12.6723 93.4139 16.6251 93.4139 21.0095C93.4139 26.9965 88.5605 31.8499 82.5735 31.8499ZM103.617 70.6577C107.965 71.23 112.228 69.1273 114.421 65.33C117.414 60.1455 115.638 53.5164 110.453 50.5227C106.656 48.33 101.913 48.6405 98.4338 51.3095C94.9551 53.9784 93.4267 58.4802 94.5614 62.7154C95.696 66.9507 99.2703 70.0853 103.617 70.6577Z" fill="url(#paint4_linear_0_197)"/>
<path fill-rule="evenodd" clip-rule="evenodd" d="M37.1085 46.9514C37.1085 21.8386 57.4679 1.48627 82.5736 1.48627C107.679 1.48627 128.039 21.8386 128.039 46.9514C128.039 72.0642 107.686 92.4165 82.5736 92.4165C57.4608 92.4165 37.1085 72.0642 37.1085 46.9514ZM110.806 25.9913C107.426 23.3982 102.817 23.0962 99.1282 25.2262H99.1264C94.09 28.1352 92.365 34.576 95.2735 39.6128C97.4034 43.3019 101.546 45.3447 105.769 44.7887C109.992 44.2327 113.465 41.1873 114.567 37.0727C115.67 32.958 114.185 28.5844 110.806 25.9913ZM66.0189 68.6623C62.3304 70.7934 57.7214 70.4927 54.341 67.9004C50.9607 65.3081 49.4749 60.9347 50.5764 56.8197C51.678 52.7047 55.15 49.6585 59.3733 49.1017C63.5966 48.5448 67.7395 50.5869 69.8701 54.2757C72.7789 59.312 71.0547 65.7527 66.0189 68.6623ZM59.3745 44.7869C63.5978 45.3429 67.7402 43.3001 69.8701 39.611C72.7783 34.5738 71.0525 28.1328 66.0154 25.2244C62.3263 23.0944 57.7175 23.3964 54.3379 25.9895C50.9584 28.5827 49.4737 32.9562 50.5762 37.0709C51.6786 41.1855 55.1512 44.2309 59.3745 44.7869ZM82.57 82.6691C76.7534 82.6691 72.0382 77.9539 72.0382 72.1373C72.0382 66.3207 76.7534 61.6054 82.57 61.6054C88.3866 61.6054 93.1019 66.3207 93.1019 72.1373C93.1029 77.9532 88.3895 82.669 82.5736 82.6709L82.57 82.6691ZM82.5718 39.7465C78.891 39.7465 75.9071 42.7304 75.9071 46.4111C75.9071 50.0919 78.891 53.0758 82.5718 53.0758C86.2526 53.0758 89.2364 50.0919 89.2364 46.4111C89.2364 42.7304 86.2526 39.7465 82.5718 39.7465ZM82.5718 32.2813C76.7554 32.2813 72.0403 27.5664 72.0399 21.75C72.0396 15.9337 76.7542 11.2182 82.5706 11.2176C88.387 11.2169 93.1027 15.9313 93.1037 21.7477C93.1037 27.5636 88.3895 32.2785 82.5736 32.2795L82.5718 32.2813ZM103.017 69.9835C107.241 70.5395 111.383 68.4967 113.513 64.8076C116.421 59.7704 114.695 53.3294 109.658 50.421C105.969 48.291 101.36 48.593 97.9809 51.1861C94.6013 53.7792 93.1166 58.1528 94.2191 62.2675C95.3216 66.3821 98.7941 69.4275 103.017 69.9835Z" fill="url(#paint5_linear_0_197)"/>
<path opacity="0.2" d="M40.1822 49.6098C40.1822 24.5041 60.5346 4.14464 85.6474 4.14464C95.1229 4.13004 104.364 7.09043 112.067 12.6083C103.85 5.5829 93.3912 1.72946 82.5807 1.7448C57.475 1.7448 37.1156 22.0971 37.1156 47.2099C37.1051 61.8947 44.1982 75.6776 56.1539 84.2043C46.0093 75.5768 40.1691 62.9268 40.1822 49.6098Z" fill="white"/>
<circle opacity="0.2" cx="82.5736" cy="46.4094" r="7.66488" stroke="white" stroke-width="13"/>
<circle cx="24.4798" cy="56.2138" r="2.69938" fill="url(#paint6_linear_0_197)"/>
<circle cx="24.4798" cy="56.2138" r="2.39984" fill="#FDD835"/>
<path opacity="0.2" d="M22.6808 56.9127C22.6801 55.9484 23.257 55.0774 24.1453 54.702C25.0335 54.3265 26.0602 54.5197 26.7513 55.1922C26.337 54.3303 25.4501 53.797 24.4945 53.835C23.539 53.8731 22.6974 54.4753 22.3529 55.3675C22.0085 56.2596 22.227 57.2711 22.9091 57.9415C22.7574 57.6198 22.6794 57.2683 22.6808 56.9127Z" fill="white"/>
<circle cx="32.2767" cy="56.2138" r="2.69938" fill="url(#paint7_linear_0_197)"/>
<circle cx="32.2767" cy="56.2138" r="2.39984" fill="#FDD835"/>
<path opacity="0.2" d="M30.4777 56.9127C30.4769 55.9484 31.0539 55.0774 31.9421 54.702C32.8303 54.3265 33.857 54.5197 34.5482 55.1922C34.1338 54.3303 33.247 53.797 32.2914 53.835C31.3358 53.8731 30.4942 54.4753 30.1498 55.3675C29.8053 56.2596 30.0239 57.2711 30.7059 57.9415C30.5542 57.6198 30.4762 57.2683 30.4777 56.9127Z" fill="white"/>
<circle cx="10.0861" cy="56.2138" r="2.69938" fill="url(#paint8_linear_0_197)"/>
<circle cx="10.0861" cy="56.2138" r="2.39984" fill="#FDD835"/>
<path opacity="0.2" d="M8.28714 56.9127C8.28638 55.9484 8.86332 55.0774 9.75155 54.702C10.6398 54.3265 11.6665 54.5196 12.3576 55.1922C11.9424 54.3318 11.0561 53.8 10.1016 53.8384C9.14703 53.8768 8.30633 54.4781 7.96153 55.369C7.61673 56.2599 7.8336 57.2705 8.51358 57.9415C8.3625 57.6197 8.28514 57.2682 8.28714 56.9127Z" fill="white"/>
<circle cx="20.2828" cy="49.4154" r="2.69938" fill="url(#paint9_linear_0_197)"/>
<circle cx="20.2828" cy="49.4154" r="2.39984" fill="#FDD835"/>
<path opacity="0.2" d="M18.482 50.1161C18.4812 49.1518 19.0582 48.2808 19.9464 47.9054C20.8346 47.5299 21.8614 47.7231 22.5525 48.3956C22.1432 47.5273 21.2556 46.9866 20.2964 47.0214C19.3371 47.0562 18.491 47.6597 18.1457 48.5553C17.8004 49.451 18.0225 50.4663 18.7102 51.136C18.5598 50.817 18.4819 50.4687 18.482 50.1161Z" fill="white"/>
<circle cx="36.176" cy="50.5155" r="2.69938" fill="url(#paint10_linear_0_197)"/>
<circle cx="36.176" cy="50.5155" r="2.39984" fill="#FDD835"/>
<path opacity="0.2" d="M34.3752 51.2162C34.3744 50.2519 34.9514 49.3809 35.8396 49.0055C36.7278 48.63 37.7545 48.8231 38.4457 49.4957C38.0364 48.6274 37.1488 48.0867 36.1895 48.1215C35.2303 48.1563 34.3842 48.7598 34.0389 49.6554C33.6936 50.5511 33.9157 51.5664 34.6034 52.2361C34.453 51.9171 34.3751 51.5688 34.3752 51.2162Z" fill="white"/>
<circle cx="32.2767" cy="48.1157" r="2.69938" fill="url(#paint11_linear_0_197)"/>
<circle cx="32.2767" cy="48.1157" r="2.39984" fill="#FDD835"/>
<path opacity="0.2" d="M30.4777 48.8164C30.4769 47.852 31.0538 46.9811 31.9421 46.6056C32.8303 46.2302 33.857 46.4233 34.5481 47.0958C34.1389 46.2275 33.2513 45.6869 32.292 45.7217C31.3327 45.7565 30.4866 46.3599 30.1414 47.2556C29.7961 48.1513 30.0182 49.1665 30.7059 49.8362C30.5555 49.5173 30.4775 49.169 30.4777 48.8164Z" fill="white"/>
<circle cx="34.1773" cy="53.8139" r="2.69938" fill="url(#paint12_linear_0_197)"/>
<circle cx="34.1773" cy="53.814" r="2.39984" fill="#FDD835"/>
<path opacity="0.2" d="M32.3765 54.5147C32.3757 53.5503 32.9527 52.6794 33.8409 52.3039C34.7291 51.9285 35.7559 52.1216 36.447 52.7941C36.0386 51.9243 35.1505 51.3823 34.1902 51.4167C33.2299 51.4512 32.3829 52.0556 32.038 52.9524C31.6931 53.8493 31.9168 54.8654 32.6065 55.5345C32.4555 55.2157 32.3769 54.8674 32.3765 54.5147Z" fill="white"/>
<circle cx="27.1792" cy="49.4154" r="2.69938" fill="url(#paint13_linear_0_197)"/>
<circle cx="27.1792" cy="49.4154" r="2.39984" fill="#FDD835"/>
<path opacity="0.2" d="M25.3802 50.1161C25.3795 49.1518 25.9564 48.2808 26.8446 47.9054C27.7329 47.5299 28.7596 47.7231 29.4507 48.3956C29.0415 47.5273 28.1539 46.9866 27.1946 47.0214C26.2353 47.0562 25.3892 47.6597 25.0439 48.5553C24.6986 49.451 24.9207 50.4663 25.6084 51.136C25.458 50.817 25.3801 50.4687 25.3802 50.1161Z" fill="white"/>
<circle cx="26.8797" cy="41.8183" r="2.69938" fill="url(#paint14_linear_0_197)"/>
<circle cx="26.8797" cy="41.8183" r="2.39984" fill="#FDD835"/>
<path opacity="0.2" d="M25.0807 42.519C25.0799 41.5547 25.6569 40.6837 26.5451 40.3083C27.4333 39.9328 28.46 40.1259 29.1512 40.7985C28.7419 39.9301 27.8543 39.3895 26.8951 39.4243C25.9358 39.4591 25.0897 40.0626 24.7444 40.9582C24.3991 41.8539 24.6212 42.8692 25.3089 43.5388C25.1585 43.2199 25.0806 42.8716 25.0807 42.519Z" fill="white"/>
<circle cx="40.1733" cy="45.7176" r="2.69938" fill="url(#paint15_linear_0_197)"/>
<circle cx="40.1733" cy="45.7176" r="2.39984" fill="#FDD835"/>
<path opacity="0.2" d="M38.3743 46.4165C38.3736 45.4522 38.9505 44.5812 39.8387 44.2058C40.727 43.8303 41.7537 44.0235 42.4448 44.696C42.0356 43.8277 41.148 43.2871 40.1887 43.3218C39.2294 43.3566 38.3833 43.9601 38.038 44.8557C37.6927 45.7514 37.9148 46.7667 38.6026 47.4364C38.4522 47.1174 38.3742 46.7691 38.3743 46.4165Z" fill="white"/>
<circle cx="38.8753" cy="50.815" r="2.69938" fill="url(#paint16_linear_0_197)"/>
<circle cx="38.8753" cy="50.815" r="2.39984" fill="#FDD835"/>
<path opacity="0.2" d="M37.0746 51.5229C37.0738 50.5586 37.6507 49.6876 38.539 49.3121C39.4272 48.9367 40.4539 49.1298 41.145 49.8023C40.7358 48.934 39.8482 48.3934 38.8889 48.4282C37.9296 48.463 37.0835 49.0664 36.7382 49.9621C36.393 50.8578 36.6151 51.873 37.3028 52.5427C37.1524 52.2238 37.0744 51.8755 37.0746 51.5229Z" fill="white"/>
<circle cx="44.8714" cy="49.8148" r="2.69938" fill="url(#paint17_linear_0_197)"/>
<circle cx="44.8714" cy="49.8148" r="2.39984" fill="#FDD835"/>
<path opacity="0.2" d="M43.0724 50.5155C43.0716 49.5512 43.6486 48.6802 44.5368 48.3048C45.425 47.9293 46.4517 48.1224 47.1429 48.795C46.7353 47.9237 45.8467 47.3802 44.8854 47.4144C43.9241 47.4486 43.0763 48.0538 42.7317 48.9519C42.3872 49.8499 42.6125 50.8669 43.3042 51.5353C43.1525 51.2167 43.0734 50.8684 43.0724 50.5155Z" fill="white"/>
<circle cx="42.1738" cy="52.3145" r="2.69938" fill="url(#paint18_linear_0_197)"/>
<circle cx="42.1738" cy="52.3145" r="2.39984" fill="#FDD835"/>
<path opacity="0.2" d="M40.373 53.0152C40.3723 52.0509 40.9492 51.1799 41.8374 50.8045C42.7257 50.429 43.7524 50.6221 44.4435 51.2946C44.0343 50.4263 43.1467 49.8857 42.1874 49.9205C41.2281 49.9553 40.382 50.5587 40.0367 51.4544C39.6914 52.3501 39.9135 53.3653 40.6012 54.035C40.4508 53.7161 40.3729 53.3678 40.373 53.0152Z" fill="white"/>
<circle cx="24.1803" cy="45.7176" r="2.69938" fill="url(#paint19_linear_0_197)"/>
<circle cx="24.1803" cy="45.7176" r="2.39984" fill="#FDD835"/>
<path opacity="0.2" d="M22.3813 46.4165C22.3806 45.4522 22.9575 44.5812 23.8457 44.2058C24.734 43.8303 25.7607 44.0235 26.4518 44.696C26.0426 43.8277 25.155 43.2871 24.1957 43.3218C23.2364 43.3566 22.3903 43.9601 22.045 44.8557C21.6997 45.7514 21.9218 46.7667 22.6095 47.4364C22.4591 47.1174 22.3812 46.7691 22.3813 46.4165Z" fill="white"/>
<circle cx="20.2828" cy="55.9125" r="2.69938" fill="url(#paint20_linear_0_197)"/>
<circle cx="20.2828" cy="55.9125" r="2.39984" fill="#FBC02D"/>
<path opacity="0.2" d="M18.482 56.6132C18.4812 55.6489 19.0582 54.7779 19.9464 54.4024C20.8346 54.027 21.8614 54.2201 22.5525 54.8926C22.1432 54.0243 21.2556 53.4837 20.2964 53.5185C19.3371 53.5533 18.491 54.1567 18.1457 55.0524C17.8004 55.9481 18.0225 56.9633 18.7102 57.633C18.5598 57.3141 18.4819 56.9658 18.482 56.6132Z" fill="white"/>
<circle cx="14.1851" cy="56.2138" r="2.69938" fill="url(#paint21_linear_0_197)"/>
<circle cx="14.1851" cy="56.2138" r="2.39984" fill="#FBC02D"/>
<path opacity="0.2" d="M12.3843 56.9127C12.3836 55.9484 12.9605 55.0774 13.8487 54.702C14.737 54.3265 15.7637 54.5197 16.4548 55.1922C16.0404 54.3303 15.1536 53.797 14.198 53.835C13.2425 53.8731 12.4009 54.4753 12.0564 55.3675C11.712 56.2596 11.9305 57.2711 12.6126 57.9415C12.4609 57.6198 12.3829 57.2683 12.3843 56.9127Z" fill="white"/>
<circle cx="17.2839" cy="54.5129" r="2.69938" fill="url(#paint22_linear_0_197)"/>
<circle cx="17.2839" cy="54.5129" r="2.39984" fill="#FBC02D"/>
<path opacity="0.2" d="M15.4902 55.2136C15.4895 54.2493 16.0664 53.3783 16.9546 53.0028C17.8429 52.6274 18.8696 52.8205 19.5607 53.493C19.1515 52.6247 18.2639 52.0841 17.3046 52.1189C16.3453 52.1537 15.4992 52.7571 15.1539 53.6528C14.8087 54.5485 15.0307 55.5637 15.7185 56.2334C15.5681 55.9145 15.4901 55.5662 15.4902 55.2136Z" fill="white"/>
<circle cx="30.4777" cy="51.5157" r="2.69938" fill="url(#paint23_linear_0_197)"/>
<circle cx="30.4777" cy="51.5158" r="2.39984" fill="#FBC02D"/>
<path opacity="0.2" d="M28.684 52.2146C28.6833 51.2503 29.2602 50.3794 30.1484 50.0039C31.0367 49.6285 32.0634 49.8216 32.7545 50.4941C32.3453 49.6258 31.4577 49.0852 30.4984 49.12C29.5391 49.1547 28.693 49.7582 28.3477 50.6539C28.0024 51.5495 28.2245 52.5648 28.9122 53.2345C28.7618 52.9156 28.6839 52.5673 28.684 52.2146Z" fill="white"/>
<circle cx="30.4777" cy="45.1167" r="2.69938" fill="url(#paint24_linear_0_197)"/>
<circle cx="30.4777" cy="45.1167" r="2.39984" fill="#FBC02D"/>
<path opacity="0.2" d="M28.684 45.8174C28.6833 44.8531 29.2602 43.9821 30.1484 43.6067C31.0367 43.2313 32.0634 43.4244 32.7545 44.0969C32.3453 43.2286 31.4577 42.688 30.4984 42.7227C29.5391 42.7575 28.693 43.361 28.3477 44.2567C28.0024 45.1523 28.2245 46.1676 28.9122 46.8373C28.7618 46.5183 28.6839 46.1701 28.684 45.8174Z" fill="white"/>
<circle cx="33.4766" cy="50.216" r="2.69938" fill="url(#paint25_linear_0_197)"/>
<circle cx="33.4766" cy="50.216" r="2.39984" fill="#FBC02D"/>
<path opacity="0.2" d="M31.6776 50.9149C31.6768 49.9506 32.2538 49.0796 33.142 48.7041C34.0302 48.3287 35.0569 48.5218 35.7481 49.1943C35.3388 48.326 34.4512 47.7854 33.4919 47.8202C32.5327 47.855 31.6866 48.4584 31.3413 49.3541C30.996 50.2498 31.2181 51.265 31.9058 51.9347C31.7554 51.6158 31.6775 51.2675 31.6776 50.9149Z" fill="white"/>
<circle cx="30.7772" cy="40.0193" r="2.69938" fill="url(#paint26_linear_0_197)"/>
<circle cx="30.7772" cy="40.0193" r="2.39984" fill="#FBC02D"/>
<path opacity="0.2" d="M28.9782 40.72C28.9775 39.7557 29.5544 38.8847 30.4426 38.5093C31.3309 38.1338 32.3576 38.3269 33.0487 38.9994C32.6395 38.1311 31.7519 37.5905 30.7926 37.6253C29.8333 37.6601 28.9872 38.2636 28.6419 39.1592C28.2966 40.0549 28.5187 41.0701 29.2064 41.7398C29.056 41.4209 28.9781 41.0726 28.9782 40.72Z" fill="white"/>
<circle cx="31.3781" cy="42.7187" r="2.69938" fill="url(#paint27_linear_0_197)"/>
<circle cx="31.3781" cy="42.7187" r="2.39984" fill="#FBC02D"/>
<path opacity="0.2" d="M29.5755 43.4194C29.5747 42.4551 30.1517 41.5841 31.0399 41.2087C31.9281 40.8332 32.9549 41.0263 33.646 41.6988C33.2367 40.8305 32.3491 40.2899 31.3899 40.3247C30.4306 40.3595 29.5845 40.963 29.2392 41.8586C28.8939 42.7543 29.116 43.7695 29.8037 44.4392C29.6533 44.1203 29.5754 43.772 29.5755 43.4194Z" fill="white"/>
<circle cx="34.5767" cy="44.5177" r="2.69938" fill="url(#paint28_linear_0_197)"/>
<circle cx="34.5767" cy="44.5177" r="2.39984" fill="#FBC02D"/>
<path opacity="0.2" d="M32.7848 45.2184C32.7875 44.2574 33.3636 43.3909 34.2486 43.0166C35.1337 42.6422 36.1567 42.8323 36.8482 43.4996C36.4389 42.6313 35.5513 42.0907 34.592 42.1255C33.6328 42.1602 32.7866 42.7637 32.4414 43.6594C32.0961 44.555 32.3182 45.5703 33.0059 46.24C32.8577 45.9199 32.7822 45.571 32.7848 45.2184Z" fill="white"/>
<circle cx="37.8751" cy="44.0184" r="2.69938" fill="url(#paint29_linear_0_197)"/>
<circle cx="37.8751" cy="44.0184" r="2.39984" fill="#FBC02D"/>
<path opacity="0.2" d="M36.0761 44.7174C36.0754 43.753 36.6523 42.8821 37.5405 42.5066C38.4288 42.1312 39.4555 42.3243 40.1466 42.9968C39.7374 42.1285 38.8498 41.5879 37.8905 41.6227C36.9312 41.6575 36.0851 42.2609 35.7398 43.1566C35.3945 44.0523 35.6166 45.0675 36.3043 45.7372C36.1539 45.4183 36.076 45.07 36.0761 44.7174Z" fill="white"/>
<circle cx="36.9747" cy="46.716" r="2.69938" fill="url(#paint30_linear_0_197)"/>
<circle cx="36.9747" cy="46.716" r="2.39984" fill="#FBC02D"/>
<path opacity="0.2" d="M35.1757 47.4221C35.175 46.4578 35.7519 45.5868 36.6401 45.2113C37.5284 44.8359 38.5551 45.029 39.2462 45.7015C38.837 44.8332 37.9494 44.2926 36.9901 44.3274C36.0308 44.3622 35.1847 44.9656 34.8394 45.8613C34.4941 46.757 34.7162 47.7722 35.4039 48.4419C35.2535 48.123 35.1756 47.7747 35.1757 47.4221Z" fill="white"/>
<circle cx="25.6798" cy="43.2179" r="2.69938" fill="url(#paint31_linear_0_197)"/>
<circle cx="25.6798" cy="43.2179" r="2.39984" fill="#FBC02D"/>
<path opacity="0.2" d="M23.8808 43.9186C23.88 42.9543 24.457 42.0833 25.3452 41.7079C26.2334 41.3324 27.2601 41.5255 27.9512 42.1981C27.542 41.3297 26.6544 40.7891 25.6951 40.8239C24.7359 40.8587 23.8897 41.4622 23.5445 42.3578C23.1992 43.2535 23.4213 44.2688 24.109 44.9384C23.9586 44.6195 23.8807 44.2712 23.8808 43.9186Z" fill="white"/>
<circle cx="17.8829" cy="51.4141" r="2.69938" fill="url(#paint32_linear_0_197)"/>
<circle cx="17.8829" cy="51.4141" r="2.39984" fill="#FBC02D"/>
<path opacity="0.2" d="M16.084 52.1148C16.0832 51.1505 16.6601 50.2795 17.5484 49.9041C18.4366 49.5286 19.4633 49.7217 20.1544 50.3942C19.7484 49.5224 18.8608 48.9775 17.8996 49.01C16.9385 49.0424 16.0897 49.646 15.7434 50.5432C15.3971 51.4404 15.6203 52.4577 16.3104 53.1275C16.1616 52.8106 16.0843 52.4649 16.084 52.1148Z" fill="white"/>
<circle cx="22.581" cy="46.9175" r="2.69938" fill="url(#paint33_linear_0_197)"/>
<circle cx="22.581" cy="46.9175" r="2.39984" fill="#FBC02D"/>
<path opacity="0.2" d="M20.782 47.6164C20.7813 46.6521 21.3582 45.7811 22.2464 45.4057C23.1347 45.0302 24.1614 45.2234 24.8525 45.8959C24.4467 45.0217 23.5569 44.4754 22.5937 44.509C21.6305 44.5427 20.781 45.1497 20.4372 46.05C20.0933 46.9504 20.3218 47.9691 21.0174 48.6363C20.8645 48.3179 20.7841 47.9696 20.782 47.6164Z" fill="white"/>
<circle cx="12.9852" cy="54.6145" r="2.69938" fill="url(#paint34_linear_0_197)"/>
<circle cx="12.9852" cy="54.6145" r="2.39984" fill="#FBC02D"/>
<path opacity="0.2" d="M11.1862 55.3134C11.1854 54.3491 11.7624 53.4781 12.6506 53.1027C13.5388 52.7272 14.5656 52.9203 15.2567 53.5929C14.8445 52.7286 13.9578 52.1924 13.001 52.2288C12.0442 52.2652 11.2007 52.8672 10.8554 53.7603C10.5101 54.6534 10.7292 55.6662 11.4126 56.3368C11.2623 56.0166 11.185 55.6671 11.1862 55.3134Z" fill="white"/>
<circle cx="38.8753" cy="52.5142" r="2.69938" fill="url(#paint35_linear_0_197)"/>
<circle cx="38.8753" cy="52.5142" r="2.39984" fill="#FBC02D"/>
<path opacity="0.2" d="M37.0746 53.2149C37.0738 52.2506 37.6507 51.3796 38.539 51.0042C39.4272 50.6287 40.4539 50.8218 41.145 51.4944C40.7358 50.626 39.8482 50.0854 38.8889 50.1202C37.9296 50.155 37.0835 50.7585 36.7382 51.6541C36.393 52.5498 36.6151 53.565 37.3028 54.2347C37.1524 53.9158 37.0744 53.5675 37.0746 53.2149Z" fill="white"/>
<circle cx="26.7799" cy="37.3199" r="2.69938" fill="url(#paint36_linear_0_197)"/>
<circle cx="26.7799" cy="37.3199" r="2.39984" fill="#FBC02D"/>
<path opacity="0.2" d="M24.9791 38.0206C24.9783 37.0563 25.5552 36.1853 26.4435 35.8099C27.3317 35.4344 28.3584 35.6276 29.0495 36.3001C28.6393 35.433 27.7518 34.8939 26.7933 34.9293C25.8347 34.9647 24.9895 35.568 24.6444 36.4629C24.2993 37.3579 24.5207 38.3724 25.2073 39.0422C25.0566 38.7228 24.9787 38.3738 24.9791 38.0206Z" fill="white"/>
<circle cx="21.8821" cy="43.5174" r="2.69938" fill="url(#paint37_linear_0_197)"/>
<circle cx="21.8821" cy="43.5174" r="2.39984" fill="#FBC02D"/>
<path opacity="0.2" d="M20.0813 44.2128C20.0805 43.2485 20.6575 42.3775 21.5457 42.0021C22.4339 41.6266 23.4607 41.8197 24.1518 42.4923C23.7368 41.6324 22.8514 41.1007 21.8974 41.1384C20.9434 41.176 20.1027 41.776 19.7569 42.6659C19.411 43.5558 19.626 44.566 20.3042 45.238C20.1548 44.917 20.0787 44.5668 20.0813 44.2128Z" fill="white"/>
<circle cx="17.9828" cy="48.1157" r="2.69938" fill="url(#paint38_linear_0_197)"/>
<circle cx="17.9828" cy="48.1157" r="2.39984" fill="#FBC02D"/>
<path opacity="0.2" d="M16.1838 48.8164C16.183 47.852 16.76 46.9811 17.6482 46.6056C18.5364 46.2302 19.5631 46.4233 20.2542 47.0958C19.845 46.2275 18.9574 45.6869 17.9981 45.7217C17.0389 45.7565 16.1927 46.3599 15.8475 47.2556C15.5022 48.1513 15.7243 49.1665 16.412 49.8362C16.2616 49.5173 16.1837 49.169 16.1838 48.8164Z" fill="white"/>
<circle cx="20.782" cy="53.2149" r="2.69938" fill="url(#paint39_linear_0_197)"/>
<circle cx="20.782" cy="53.2149" r="2.39984" fill="#FBC02D"/>
<path opacity="0.2" d="M18.983 53.9138C18.9823 52.9495 19.5592 52.0785 20.4474 51.7031C21.3357 51.3276 22.3624 51.5207 23.0535 52.1933C22.6443 51.325 21.7567 50.7843 20.7974 50.8191C19.8381 50.8539 18.992 51.4574 18.6467 52.353C18.3014 53.2487 18.5235 54.264 19.2113 54.9337C19.0609 54.6147 18.9829 54.2664 18.983 53.9138Z" fill="white"/>
<circle cx="24.5797" cy="49.8148" r="2.69938" fill="url(#paint40_linear_0_197)"/>
<circle cx="24.5797" cy="49.8148" r="2.39984" fill="#FBC02D"/>
<path opacity="0.2" d="M22.7807 50.5155C22.7799 49.5512 23.3569 48.6802 24.2451 48.3048C25.1333 47.9293 26.1601 48.1224 26.8512 48.7949C26.4419 47.9266 25.5543 47.386 24.5951 47.4208C23.6358 47.4556 22.7897 48.0591 22.4444 48.9547C22.0991 49.8504 22.3212 50.8656 23.0089 51.5353C22.8585 51.2164 22.7806 50.8681 22.7807 50.5155Z" fill="white"/>
<circle cx="26.5801" cy="53.2149" r="2.69938" fill="url(#paint41_linear_0_197)"/>
<circle cx="26.5801" cy="53.2149" r="2.39984" fill="#FBC02D"/>
<path opacity="0.2" d="M24.7794 53.9138C24.7786 52.9495 25.3555 52.0785 26.2438 51.7031C27.132 51.3276 28.1587 51.5207 28.8498 52.1933C28.4406 51.325 27.553 50.7843 26.5937 50.8191C25.6344 50.8539 24.7883 51.4574 24.4431 52.353C24.0978 53.2487 24.3199 54.264 25.0076 54.9337C24.8572 54.6147 24.7792 54.2664 24.7794 53.9138Z" fill="white"/>
<circle cx="47.2712" cy="56.2138" r="2.69938" fill="url(#paint42_linear_0_197)"/>
<circle cx="47.2712" cy="56.2138" r="2.39984" fill="#FBC02D"/>
<path opacity="0.2" d="M45.4722 56.9127C45.4715 55.9479 46.049 55.0767 46.9378 54.7015C47.8267 54.3264 48.8538 54.5204 49.5445 55.1939C49.1294 54.3339 48.2435 53.8021 47.2893 53.8401C46.335 53.8782 45.4943 54.4788 45.149 55.3692C44.8037 56.2596 45.0196 57.27 45.6987 57.9415C45.5476 57.6197 45.4702 57.2682 45.4722 56.9127Z" fill="white"/>
<circle cx="43.4718" cy="55.613" r="2.69938" fill="url(#paint43_linear_0_197)"/>
<circle cx="43.4718" cy="55.6129" r="2.39984" fill="#FBC02D"/>
<path opacity="0.2" d="M41.6728 56.3136C41.672 55.3493 42.249 54.4784 43.1372 54.1029C44.0254 53.7275 45.0521 53.9206 45.7433 54.5931C45.334 53.7248 44.4464 53.1842 43.4872 53.219C42.5279 53.2537 41.6818 53.8572 41.3365 54.7529C40.9912 55.6485 41.2133 56.6638 41.901 57.3335C41.7506 57.0146 41.6727 56.6663 41.6728 56.3136Z" fill="white"/>
<circle cx="36.176" cy="55.9125" r="2.69938" fill="url(#paint44_linear_0_197)"/>
<circle cx="36.176" cy="55.9125" r="2.39984" fill="#FBC02D"/>
<circle cx="36.6752" cy="53.1151" r="2.39984" fill="#FBC02D"/>
<path opacity="0.2" d="M34.3752 56.6132C34.3744 55.6489 34.9514 54.7779 35.8396 54.4024C36.7278 54.027 37.7545 54.2201 38.4457 54.8926C38.0364 54.0243 37.1488 53.4837 36.1895 53.5185C35.2303 53.5533 34.3842 54.1567 34.0389 55.0524C33.6936 55.9481 33.9157 56.9633 34.6034 57.633C34.453 57.3141 34.3751 56.9658 34.3752 56.6132Z" fill="white"/>
<circle cx="28.0796" cy="56.2138" r="2.69938" fill="url(#paint45_linear_0_197)"/>
<circle cx="28.0796" cy="56.2138" r="2.39984" fill="#FBC02D"/>
<path opacity="0.2" d="M26.2788 56.9127C26.2781 55.9484 26.855 55.0774 27.7432 54.702C28.6315 54.3265 29.6582 54.5197 30.3493 55.1922C29.9349 54.3303 29.0481 53.797 28.0925 53.835C27.137 53.8731 26.2954 54.4753 25.9509 55.3675C25.6065 56.2596 25.825 57.2711 26.5071 57.9415C26.3554 57.6198 26.2774 57.2683 26.2788 56.9127Z" fill="white"/>
<circle cx="27.2791" cy="45.4181" r="2.69938" fill="url(#paint46_linear_0_197)"/>
<circle cx="27.2791" cy="45.4181" r="2.39984" fill="#FDD835"/>
<path opacity="0.2" d="M25.4747 46.117C25.4697 45.1494 26.0467 44.2735 26.9377 43.8962C27.8287 43.5189 28.8592 43.7141 29.5505 44.3911C29.1413 43.5228 28.2537 42.9822 27.2944 43.0169C26.3352 43.0517 25.489 43.6552 25.1438 44.5508C24.7985 45.4465 25.0206 46.4618 25.7083 47.1315C25.5568 46.8146 25.4771 46.4682 25.4747 46.117Z" fill="white"/>
<circle cx="29.9785" cy="48.8164" r="2.69938" fill="url(#paint47_linear_0_197)"/>
<circle cx="29.9785" cy="48.8163" r="2.39984" fill="#FDD835"/>
<path opacity="0.2" d="M28.1777 49.5153C28.1769 48.5505 28.7544 47.6792 29.6432 47.3041C30.5321 46.9289 31.5592 47.123 32.2499 47.7965C31.8407 46.9282 30.9531 46.3876 29.9938 46.4224C29.0345 46.4571 28.1884 47.0606 27.8431 47.9563C27.4979 48.8519 27.72 49.8672 28.4077 50.5369C28.2564 50.2175 28.1778 49.8686 28.1777 49.5153Z" fill="white"/>
<circle cx="25.4801" cy="40.5203" r="2.69938" fill="url(#paint48_linear_0_197)"/>
<circle cx="25.4801" cy="40.5203" r="2.39984" fill="#FDD835"/>
<path opacity="0.2" d="M23.6811 41.2192C23.6803 40.2549 24.2573 39.3839 25.1455 39.0085C26.0337 38.633 27.0605 38.8262 27.7516 39.4987C27.3423 38.6304 26.4547 38.0898 25.4955 38.1245C24.5362 38.1593 23.6901 38.7628 23.3448 39.6585C22.9995 40.5541 23.2216 41.5694 23.9093 42.2391C23.7589 41.9201 23.681 41.5719 23.6811 41.2192Z" fill="white"/>
<circle cx="28.479" cy="40.8198" r="2.69938" fill="url(#paint49_linear_0_197)"/>
<circle cx="28.479" cy="40.8198" r="2.39984" fill="#FDD835"/>
<path opacity="0.2" d="M26.68 41.5188C26.6793 40.5544 27.2562 39.6835 28.1444 39.308C29.0326 38.9326 30.0594 39.1257 30.7505 39.7982C30.3367 38.9373 29.4515 38.4041 28.497 38.4408C27.5426 38.4774 26.7009 39.077 26.3544 39.9671C26.0079 40.8572 26.2227 41.868 26.9011 42.5404C26.7529 42.2203 26.6774 41.8714 26.68 41.5188Z" fill="white"/>
<circle cx="33.4766" cy="42.2195" r="2.69938" fill="url(#paint50_linear_0_197)"/>
<circle cx="33.4766" cy="42.2195" r="2.39984" fill="#FDD835"/>
<path opacity="0.2" d="M31.6776 42.9184C31.6768 41.9541 32.2538 41.0831 33.142 40.7077C34.0302 40.3322 35.0569 40.5253 35.7481 41.1978C35.3388 40.3295 34.4512 39.7889 33.4919 39.8237C32.5327 39.8585 31.6866 40.4619 31.3413 41.3576C30.996 42.2533 31.2181 43.2685 31.9058 43.9382C31.7554 43.6193 31.6775 43.271 31.6776 42.9184Z" fill="white"/>
<circle cx="19.9815" cy="46.6162" r="2.69938" fill="url(#paint51_linear_0_197)"/>
<circle cx="19.9815" cy="46.6162" r="2.39984" fill="#FDD835"/>
<path opacity="0.2" d="M18.1825 47.3169C18.1817 46.3526 18.7586 45.4816 19.6469 45.1062C20.5351 44.7307 21.5618 44.9239 22.2529 45.5964C21.8437 44.7281 20.9561 44.1874 19.9968 44.2222C19.0375 44.257 18.1914 44.8605 17.8462 45.7561C17.5009 46.6518 17.723 47.6671 18.4107 48.3368C18.2603 48.0178 18.1823 47.6695 18.1825 47.3169Z" fill="white"/>
<circle cx="21.8821" cy="50.1161" r="2.69938" fill="url(#paint52_linear_0_197)"/>
<circle cx="21.8821" cy="50.1161" r="2.39984" fill="#FDD835"/>
<path opacity="0.2" d="M20.0813 50.8097C20.0806 49.8454 20.6575 48.9744 21.5457 48.599C22.434 48.2235 23.4607 48.4166 24.1518 49.0891C23.7358 48.2307 22.8505 47.7004 21.8973 47.7387C20.9441 47.7771 20.1043 48.3768 19.7586 49.2659C19.413 50.1551 19.6272 51.1645 20.3042 51.8367C20.1546 51.5151 20.0785 51.1643 20.0813 50.8097Z" fill="white"/>
<circle cx="23.1819" cy="54.2133" r="2.69938" fill="url(#paint53_linear_0_197)"/>
<circle cx="23.1819" cy="54.2133" r="2.39984" fill="#FDD835"/>
<path opacity="0.2" d="M21.374 54.9105C21.3732 53.9462 21.9501 53.0752 22.8384 52.6997C23.7266 52.3243 24.7533 52.5174 25.4444 53.1899C25.0352 52.3216 24.1476 51.781 23.1883 51.8158C22.229 51.8506 21.3829 52.454 21.0377 53.3497C20.6924 54.2454 20.9145 55.2606 21.6022 55.9303C21.4518 55.6114 21.3738 55.2631 21.374 54.9105Z" fill="white"/>
<circle cx="30.7772" cy="52.9136" r="2.69938" fill="url(#paint54_linear_0_197)"/>
<circle cx="30.7772" cy="52.9136" r="2.39984" fill="#FDD835"/>
<path opacity="0.2" d="M28.9782 53.6143C28.9775 52.65 29.5544 51.779 30.4426 51.4035C31.3309 51.0281 32.3576 51.2212 33.0487 51.8937C32.6395 51.0254 31.7519 50.4848 30.7926 50.5196C29.8333 50.5544 28.9872 51.1578 28.6419 52.0535C28.2966 52.9492 28.5187 53.9644 29.2064 54.6341C29.056 54.3152 28.9781 53.9669 28.9782 53.6143Z" fill="white"/>
<circle cx="38.574" cy="50.5155" r="2.69938" fill="url(#paint55_linear_0_197)"/>
<circle cx="38.574" cy="50.5155" r="2.39984" fill="#FDD835"/>
<path opacity="0.2" d="M36.775 51.2162C36.7743 50.2519 37.3512 49.3809 38.2394 49.0055C39.1277 48.63 40.1544 48.8231 40.8455 49.4957C40.4363 48.6274 39.5487 48.0867 38.5894 48.1215C37.6301 48.1563 36.784 48.7598 36.4387 49.6554C36.0934 50.5511 36.3155 51.5664 37.0032 52.2361C36.8528 51.9171 36.7749 51.5688 36.775 51.2162Z" fill="white"/>
<circle cx="41.0737" cy="48.417" r="2.69938" fill="url(#paint56_linear_0_197)"/>
<circle cx="41.0737" cy="48.417" r="2.39984" fill="#FDD835"/>
<circle cx="34.976" cy="48.2155" r="2.39984" fill="#FDD835"/>
<path opacity="0.2" d="M39.2747 49.1159C39.274 48.1516 39.8509 47.2806 40.7391 46.9052C41.6274 46.5297 42.6541 46.7228 43.3452 47.3954C42.936 46.527 42.0484 45.9864 41.0891 46.0212C40.1298 46.056 39.2837 46.6595 38.9384 47.5551C38.5931 48.4508 38.8152 49.466 39.5029 50.1357C39.3525 49.8168 39.2746 49.4685 39.2747 49.1159Z" fill="white"/>
<circle cx="44.9712" cy="53.2149" r="2.69938" fill="url(#paint57_linear_0_197)"/>
<circle cx="44.9713" cy="53.2149" r="2.39984" fill="#FDD835"/>
<path opacity="0.2" d="M43.1722 53.9138C43.1715 52.9495 43.7484 52.0785 44.6367 51.7031C45.5249 51.3276 46.5516 51.5207 47.2427 52.1933C46.8335 51.325 45.9459 50.7843 44.9866 50.8191C44.0273 50.8539 43.1812 51.4574 42.8359 52.353C42.4907 53.2487 42.7128 54.264 43.4005 54.9337C43.2501 54.6147 43.1721 54.2664 43.1722 53.9138Z" fill="white"/>
<circle cx="32.3765" cy="56.5133" r="2.69938" fill="url(#paint58_linear_0_197)"/>
<circle cx="32.3765" cy="56.5133" r="2.39984" fill="#FDD835"/>
<path opacity="0.2" d="M30.5775 57.2122C30.5768 56.2479 31.1537 55.377 32.0419 55.0015C32.9302 54.6261 33.9569 54.8192 34.648 55.4917C34.2388 54.6234 33.3512 54.0828 32.3919 54.1176C31.4326 54.1523 30.5865 54.7558 30.2412 55.6515C29.8959 56.5471 30.118 57.5624 30.8057 58.2321C30.6553 57.9131 30.5774 57.5649 30.5775 57.2122Z" fill="white"/>
<circle cx="18.4838" cy="55.3134" r="2.69938" fill="url(#paint59_linear_0_197)"/>
<circle cx="18.4838" cy="55.3134" r="2.39984" fill="#FDD835"/>
<path opacity="0.2" d="M16.683 56.0141C16.6823 55.0498 17.2592 54.1788 18.1474 53.8034C19.0356 53.4279 20.0624 53.6211 20.7535 54.2936C20.3468 53.4208 19.4576 52.8759 18.4954 52.9099C17.5331 52.9438 16.6845 53.5499 16.3402 54.4491C15.996 55.3483 16.223 56.3662 16.9166 57.034C16.7643 56.7154 16.6846 56.3671 16.683 56.0141Z" fill="white"/>
<circle cx="14.5845" cy="51.8153" r="2.69938" fill="url(#paint60_linear_0_197)"/>
<circle cx="14.5845" cy="51.8153" r="2.39984" fill="#FDD835"/>
<path opacity="0.2" d="M12.7855 52.5142C12.7847 51.5499 13.3617 50.6789 14.2499 50.3034C15.1381 49.928 16.1649 50.1211 16.856 50.7936C16.4467 49.9253 15.5591 49.3847 14.5999 49.4195C13.6406 49.4543 12.7945 50.0577 12.4492 50.9534C12.1039 51.8491 12.326 52.8643 13.0137 53.534C12.8633 53.2151 12.7854 52.8668 12.7855 52.5142Z" fill="white"/>
<circle cx="19.6819" cy="50.1161" r="2.69938" fill="url(#paint61_linear_0_197)"/>
<circle cx="19.6819" cy="50.1161" r="2.39984" fill="#FDD835"/>
<path opacity="0.2" d="M17.8829 50.8097C17.8822 49.8454 18.4591 48.9744 19.3473 48.5989C20.2356 48.2235 21.2623 48.4166 21.9534 49.0891C21.5442 48.2208 20.6566 47.6802 19.6973 47.715C18.738 47.7498 17.8919 48.3532 17.5466 49.2489C17.2014 50.1446 17.4234 51.1598 18.1112 51.8295C17.9608 51.5106 17.8828 51.1623 17.8829 50.8097Z" fill="white"/>
<circle cx="16.8827" cy="46.0171" r="2.69938" fill="url(#paint62_linear_0_197)"/>
<circle cx="16.8827" cy="46.0171" r="2.39984" fill="#FDD835"/>
<path opacity="0.2" d="M15.0837 46.7089C15.0829 45.7446 15.6599 44.8736 16.5481 44.4982C17.4363 44.1227 18.4631 44.3159 19.1542 44.9884C18.7398 44.1265 17.853 43.5932 16.8974 43.6312C15.9418 43.6693 15.1002 44.2715 14.7558 45.1637C14.4113 46.0558 14.6299 47.0673 15.3119 47.7377C15.1602 47.416 15.0823 47.0646 15.0837 46.7089Z" fill="white"/>
<circle cx="19.2826" cy="42.2195" r="2.69938" fill="url(#paint63_linear_0_197)"/>
<circle cx="19.2826" cy="42.2195" r="2.39984" fill="#FDD835"/>
<path opacity="0.2" d="M17.4836 42.9184C17.4842 41.9551 18.0611 41.0858 18.9485 40.711C19.8358 40.3361 20.8612 40.5286 21.5523 41.1996C21.143 40.3313 20.2554 39.7907 19.2961 39.8255C18.3369 39.8602 17.4907 40.4637 17.1455 41.3594C16.8002 42.255 17.0223 43.2703 17.71 43.94C17.56 43.6204 17.4826 43.2715 17.4836 42.9184Z" fill="white"/>
<circle cx="40.1733" cy="56.2138" r="2.69938" fill="url(#paint64_linear_0_197)"/>
<circle cx="40.1733" cy="56.2138" r="2.39984" fill="#FDD835"/>
<path opacity="0.2" d="M38.3743 56.9127C38.3736 55.9484 38.9505 55.0774 39.8387 54.702C40.727 54.3265 41.7537 54.5197 42.4448 55.1922C42.0304 54.3303 41.1436 53.797 40.188 53.835C39.2324 53.8731 38.3909 54.4753 38.0464 55.3675C37.702 56.2596 37.9205 57.2711 38.6025 57.9415C38.4509 57.6198 38.3729 57.2683 38.3743 56.9127Z" fill="white"/>
<path d="M43.8997 100.795H14.0532L6.48813 56.212H51.5699L43.8997 100.795Z" fill="url(#paint65_linear_0_197)"/>
<path d="M43.4718 100.196H14.6843L7.38675 56.9127H50.8692L43.4718 100.196Z" fill="white"/>
<path d="M7.38675 56.9127H14.7842L21.7823 100.196H14.5845L7.38675 56.9127Z" fill="url(#paint66_linear_0_197)"/>
<path d="M50.8692 56.9127H43.3719L36.176 100.196H43.4718L50.8692 56.9127Z" fill="url(#paint67_linear_0_197)"/>
<rect x="25.3802" y="56.9127" width="7.19775" height="43.2828" fill="url(#paint68_linear_0_197)"/>
<circle cx="15.4849" cy="48.8164" r="2.69938" fill="url(#paint69_linear_0_197)"/>
<circle cx="15.4849" cy="48.8163" r="2.39984" fill="#FBC02D"/>
<path opacity="0.2" d="M13.6841 49.5153C13.6834 48.551 14.2603 47.68 15.1485 47.3045C16.0368 46.9291 17.0635 47.1222 17.7546 47.7947C17.3454 46.9264 16.4578 46.3858 15.4985 46.4206C14.5392 46.4554 13.6931 47.0588 13.3478 47.9545C13.0025 48.8502 13.2246 49.8654 13.9123 50.5351C13.7619 50.2162 13.684 49.8679 13.6841 49.5153Z" fill="white"/>
<circle cx="22.2815" cy="41.2192" r="2.69938" fill="url(#paint70_linear_0_197)"/>
<circle cx="22.2815" cy="41.2192" r="2.39984" fill="#FBC02D"/>
<path opacity="0.2" d="M20.4825 41.9199C20.4817 40.9556 21.0587 40.0846 21.9469 39.7092C22.8351 39.3337 23.8618 39.5269 24.553 40.1994C24.1437 39.3311 23.2561 38.7904 22.2968 38.8252C21.3376 38.86 20.4915 39.4635 20.1462 40.3591C19.8009 41.2548 20.023 42.2701 20.7107 42.9398C20.5603 42.6208 20.4824 42.2725 20.4825 41.9199Z" fill="white"/>
<circle cx="12.7855" cy="52.9136" r="2.69938" fill="url(#paint71_linear_0_197)"/>
<circle cx="12.7855" cy="52.9136" r="2.39984" fill="#FBC02D"/>
<path opacity="0.2" d="M10.9847 53.6143C10.984 52.6499 11.5609 51.779 12.4491 51.4035C13.3374 51.0281 14.3641 51.2212 15.0552 51.8937C14.6451 51.0269 13.758 50.4877 12.7998 50.5228C11.8415 50.5579 10.9962 51.1605 10.6506 52.0549C10.305 52.9494 10.5254 53.9638 11.2112 54.6341C11.0614 54.315 10.984 53.9667 10.9847 53.6143Z" fill="white"/>
<circle cx="9.55125" cy="34.5795" r="2.69938" fill="url(#paint72_linear_0_197)"/>
<circle cx="9.55124" cy="34.5795" r="2.39984" fill="#FBC02D"/>
<path opacity="0.2" d="M7.75223 35.2802C7.75147 34.3159 8.32841 33.4449 9.21664 33.0695C10.1049 32.6941 11.1316 32.8872 11.8227 33.5597C11.4135 32.6914 10.5259 32.1508 9.56659 32.1855C8.60731 32.2203 7.7612 32.8238 7.41592 33.7195C7.07064 34.6151 7.29274 35.6304 7.98045 36.3001C7.83005 35.9811 7.75211 35.6329 7.75223 35.2802Z" fill="white"/>
<path d="M156.721 28.5995L155.514 25.6595L139.419 32.2671C138.674 32.5735 138.187 33.2995 138.187 34.1053V51.4943H141.366V34.9076L156.721 28.5995Z" fill="#F2F2F2"/>
<path d="M159.709 48.4651H121.142V54.5485H123.776L129.137 103.79H152.185L156.951 54.2597H159.709V48.4651Z" fill="url(#paint73_linear_0_197)"/>
<path d="M151.187 102.779H129.954L124.753 50.7758H155.81L151.187 102.779Z" fill="url(#paint74_linear_0_197)"/>
<rect x="122.586" y="49.9093" width="35.5341" height="3.46605" fill="url(#paint75_linear_0_197)"/>
<circle cx="140.353" cy="73.8881" r="8.81132" fill="url(#paint76_linear_0_197)"/>
<circle cx="140.354" cy="73.8881" r="8.08922" fill="white"/>
<circle cx="20.9068" cy="19.1143" r="2.69938" fill="url(#paint77_linear_0_197)"/>
<circle cx="20.9068" cy="19.1143" r="2.39984" fill="#FBC02D"/>
<path opacity="0.2" d="M19.1061 19.8132C19.1053 18.8489 19.6822 17.9779 20.5705 17.6025C21.4587 17.227 22.4854 17.4201 23.1765 18.0926C22.7673 17.2243 21.8797 16.6837 20.9204 16.7185C19.9611 16.7533 19.115 17.3568 18.7697 18.2524C18.4245 19.1481 18.6466 20.1633 19.3343 20.833C19.1839 20.5141 19.1059 20.1658 19.1061 19.8132Z" fill="white"/>
<circle cx="30.6952" cy="7.36643" r="2.69938" fill="url(#paint78_linear_0_197)"/>
<circle cx="30.6952" cy="7.36643" r="2.39984" fill="#FDD835"/>
<path opacity="0.2" d="M28.8962 8.06713C28.8968 7.10434 29.4732 6.23528 30.3599 5.86015C31.2466 5.48503 32.2717 5.67657 32.9631 6.34659C32.5537 5.47804 31.6657 4.93742 30.7062 4.97256C29.7466 5.0077 28.9005 5.61182 28.5558 6.50799C28.211 7.40415 28.434 8.41957 29.1226 9.08876C28.9726 8.76913 28.8953 8.42022 28.8962 8.06713Z" fill="white"/>
<circle cx="49.6853" cy="32.6219" r="2.69938" fill="url(#paint79_linear_0_197)"/>
<circle cx="49.6853" cy="32.6219" r="2.39984" fill="#FDD835"/>
<path opacity="0.2" d="M47.8864 33.3226C47.8856 32.3582 48.4625 31.4873 49.3508 31.1118C50.239 30.7364 51.2657 30.9295 51.9568 31.602C51.5493 30.7307 50.6606 30.1873 49.6994 30.2215C48.7381 30.2557 47.8903 30.8609 47.5457 31.7589C47.2011 32.657 47.4265 33.674 48.1181 34.3424C47.9665 34.0238 47.8873 33.6755 47.8864 33.3226Z" fill="white"/>
<circle cx="64.7602" cy="51.8081" r="2.69938" fill="url(#paint80_linear_0_197)"/>
<circle cx="64.7602" cy="51.8081" r="2.39984" fill="#FDD835"/>
<path opacity="0.2" d="M62.9612 52.5088C62.9604 51.5445 63.5373 50.6736 64.4256 50.2981C65.3138 49.9227 66.3405 50.1158 67.0316 50.7883C66.6224 49.92 65.7348 49.3794 64.7755 49.4142C63.8162 49.4489 62.9701 50.0524 62.6248 50.9481C62.2796 51.8437 62.5017 52.859 63.1894 53.5287C63.039 53.2097 62.961 52.8615 62.9612 52.5088Z" fill="white"/>
<circle cx="8.76853" cy="98.5998" r="2.69938" fill="url(#paint81_linear_0_197)"/>
<circle cx="8.76853" cy="98.5998" r="2.39984" fill="#FBC02D"/>
<path opacity="0.2" d="M6.96776 99.3058C6.96693 98.3428 7.54225 97.4727 8.42866 97.0964C9.31507 96.7201 10.3406 96.9105 11.0329 97.5799C10.6236 96.7116 9.73605 96.171 8.77677 96.2058C7.81749 96.2406 6.97137 96.844 6.62609 97.7397C6.28082 98.6354 6.50292 99.6506 7.19063 100.32C7.04284 100.003 6.96675 99.6562 6.96776 99.3058Z" fill="white"/>
<circle cx="5.04752" cy="93.7038" r="2.69938" fill="url(#paint82_linear_0_197)"/>
<circle cx="5.04752" cy="93.7038" r="2.39984" fill="#FDD835"/>
<path opacity="0.2" d="M3.24854 94.4045C3.24778 93.4402 3.82472 92.5692 4.71295 92.1938C5.60118 91.8183 6.62789 92.0114 7.31901 92.684C6.90978 91.8156 6.02218 91.275 5.0629 91.3098C4.10362 91.3446 3.2575 91.9481 2.91223 92.8437C2.56695 93.7394 2.78905 94.7547 3.47676 95.4243C3.32636 95.1054 3.24842 94.7571 3.24854 94.4045Z" fill="white"/>
<circle cx="2.69938" cy="67.2752" r="2.69938" fill="url(#paint83_linear_0_197)"/>
<circle cx="2.69937" cy="67.2752" r="2.39984" fill="#FBC02D"/>
<path opacity="0.2" d="M0.898616 67.9741C0.897874 67.0093 1.47535 66.1381 2.36419 65.7629C3.25303 65.3878 4.28013 65.5818 4.97086 66.2553C4.56077 65.3885 3.67372 64.8494 2.71544 64.8845C1.75717 64.9195 0.911913 65.5221 0.566289 66.4166C0.220664 67.311 0.441123 68.3254 1.12683 68.9957C0.976174 68.6762 0.898231 68.3273 0.898616 67.9741Z" fill="white"/>
<circle cx="53.6007" cy="96.446" r="2.69938" fill="url(#paint84_linear_0_197)"/>
<circle cx="53.6007" cy="96.446" r="2.39984" fill="#FBC02D"/>
<path opacity="0.2" d="M51.8017 97.1449C51.8009 96.1806 52.3779 95.3096 53.2661 94.9342C54.1543 94.5587 55.1811 94.7518 55.8722 95.4243C55.4629 94.556 54.5753 94.0154 53.6161 94.0502C52.6568 94.085 51.8107 94.6884 51.4654 95.5841C51.1201 96.4798 51.3422 97.495 52.0299 98.1647C51.8795 97.8458 51.8016 97.4975 51.8017 97.1449Z" fill="white"/>
<circle cx="58.4949" cy="93.3133" r="2.69938" fill="url(#paint85_linear_0_197)"/>
<circle cx="58.4949" cy="93.3133" r="2.39984" fill="#FBC02D"/>
<path opacity="0.2" d="M56.6959 94.014C56.6951 93.0497 57.2721 92.1787 58.1603 91.8033C59.0485 91.4278 60.0753 91.621 60.7664 92.2935C60.3612 91.4202 59.4731 90.8739 58.5109 90.906C57.5488 90.9382 56.6991 91.5426 56.3532 92.441C56.0072 93.3394 56.232 94.3576 56.9241 95.0267C56.7747 94.71 56.6968 94.3642 56.6959 94.014Z" fill="white"/>
<circle cx="59.0833" cy="97.0326" r="2.69938" fill="url(#paint86_linear_0_197)"/>
<circle cx="59.0833" cy="97.0326" r="2.39984" fill="#FDD835"/>
<path opacity="0.2" d="M57.2825 97.7333C57.2817 96.7689 57.8587 95.898 58.7469 95.5225C59.6351 95.1471 60.6618 95.3402 61.3529 96.0127C60.9437 95.1444 60.0561 94.6038 59.0968 94.6386C58.1376 94.6734 57.2914 95.2768 56.9462 96.1725C56.6009 97.0682 56.823 98.0834 57.5107 98.7531C57.3603 98.4342 57.2824 98.0859 57.2825 97.7333Z" fill="white"/>
<circle cx="48.9026" cy="97.0326" r="2.69938" fill="url(#paint87_linear_0_197)"/>
<circle cx="48.9027" cy="97.0326" r="2.39984" fill="#FDD835"/>
<path opacity="0.2" d="M47.1019 97.7333C47.1011 96.7689 47.6781 95.898 48.5663 95.5225C49.4545 95.1471 50.4812 95.3402 51.1723 96.0127C50.7631 95.1444 49.8755 94.6038 48.9162 94.6386C47.957 94.6734 47.1108 95.2768 46.7656 96.1725C46.4203 97.0682 46.6424 98.0834 47.3301 98.7531C47.1797 98.4342 47.1018 98.0859 47.1019 97.7333Z" fill="white"/>
<defs>
<linearGradient id="paint0_linear_0_197" x1="129.363" y1="97.0237" x2="129.363" y2="72.2175" gradientUnits="userSpaceOnUse">
<stop stop-color="#808080" stop-opacity="0.25"/>
<stop offset="0.54" stop-color="#808080" stop-opacity="0.12"/>
<stop offset="1" stop-color="#808080" stop-opacity="0.1"/>
</linearGradient>
<linearGradient id="paint1_linear_0_197" x1="77.773" y1="72.8059" x2="77.773" y2="95.9411" gradientUnits="userSpaceOnUse">
<stop stop-color="#5FADFF"/>
<stop offset="1" stop-color="#2C93FF"/>
</linearGradient>
<linearGradient id="paint2_linear_0_197" x1="114.434" y1="78.8037" x2="114.434" y2="15.083" gradientUnits="userSpaceOnUse">
<stop stop-color="#808080" stop-opacity="0.25"/>
<stop offset="0.54" stop-color="#808080" stop-opacity="0.12"/>
<stop offset="1" stop-color="#808080" stop-opacity="0.1"/>
</linearGradient>
<linearGradient id="paint3_linear_0_197" x1="52.6832" y1="16.4149" x2="52.6832" y2="76.1957" gradientUnits="userSpaceOnUse">
<stop stop-color="#5FADFF"/>
<stop offset="1" stop-color="#2C93FF"/>
</linearGradient>
<linearGradient id="paint4_linear_0_197" x1="129.364" y1="93.7341" x2="129.364" y2="0.152649" gradientUnits="userSpaceOnUse">
<stop stop-color="#808080" stop-opacity="0.25"/>
<stop offset="0.54" stop-color="#808080" stop-opacity="0.12"/>
<stop offset="1" stop-color="#808080" stop-opacity="0.1"/>
</linearGradient>
<linearGradient id="paint5_linear_0_197" x1="38.0601" y1="1.48627" x2="38.0601" y2="90.5133" gradientUnits="userSpaceOnUse">
<stop stop-color="#CAE4FF"/>
<stop offset="1" stop-color="#8CC4FF"/>
</linearGradient>
<linearGradient id="paint6_linear_0_197" x1="27.1783" y1="58.9114" x2="27.1783" y2="53.5144" gradientUnits="userSpaceOnUse">
<stop stop-color="#808080" stop-opacity="0.25"/>
<stop offset="0.54" stop-color="#808080" stop-opacity="0.12"/>
<stop offset="1" stop-color="#808080" stop-opacity="0.1"/>
</linearGradient>
<linearGradient id="paint7_linear_0_197" x1="34.9752" y1="58.9114" x2="34.9752" y2="53.5144" gradientUnits="userSpaceOnUse">
<stop stop-color="#808080" stop-opacity="0.25"/>
<stop offset="0.54" stop-color="#808080" stop-opacity="0.12"/>
<stop offset="1" stop-color="#808080" stop-opacity="0.1"/>
</linearGradient>
<linearGradient id="paint8_linear_0_197" x1="12.7846" y1="58.9114" x2="12.7846" y2="53.5144" gradientUnits="userSpaceOnUse">
<stop stop-color="#808080" stop-opacity="0.25"/>
<stop offset="0.54" stop-color="#808080" stop-opacity="0.12"/>
<stop offset="1" stop-color="#808080" stop-opacity="0.1"/>
</linearGradient>
<linearGradient id="paint9_linear_0_197" x1="22.9822" y1="52.1148" x2="22.9822" y2="46.716" gradientUnits="userSpaceOnUse">
<stop stop-color="#808080" stop-opacity="0.25"/>
<stop offset="0.54" stop-color="#808080" stop-opacity="0.12"/>
<stop offset="1" stop-color="#808080" stop-opacity="0.1"/>
</linearGradient>
<linearGradient id="paint10_linear_0_197" x1="38.8754" y1="53.2149" x2="38.8754" y2="47.8161" gradientUnits="userSpaceOnUse">
<stop stop-color="#808080" stop-opacity="0.25"/>
<stop offset="0.54" stop-color="#808080" stop-opacity="0.12"/>
<stop offset="1" stop-color="#808080" stop-opacity="0.1"/>
</linearGradient>
<linearGradient id="paint11_linear_0_197" x1="34.9752" y1="50.8151" x2="34.9752" y2="45.4181" gradientUnits="userSpaceOnUse">
<stop stop-color="#808080" stop-opacity="0.25"/>
<stop offset="0.54" stop-color="#808080" stop-opacity="0.12"/>
<stop offset="1" stop-color="#808080" stop-opacity="0.1"/>
</linearGradient>
<linearGradient id="paint12_linear_0_197" x1="36.8767" y1="56.5133" x2="36.8767" y2="51.1146" gradientUnits="userSpaceOnUse">
<stop stop-color="#808080" stop-opacity="0.25"/>
<stop offset="0.54" stop-color="#808080" stop-opacity="0.12"/>
<stop offset="1" stop-color="#808080" stop-opacity="0.1"/>
</linearGradient>
<linearGradient id="paint13_linear_0_197" x1="29.8786" y1="52.1148" x2="29.8786" y2="46.716" gradientUnits="userSpaceOnUse">
<stop stop-color="#808080" stop-opacity="0.25"/>
<stop offset="0.54" stop-color="#808080" stop-opacity="0.12"/>
<stop offset="1" stop-color="#808080" stop-opacity="0.1"/>
</linearGradient>
<linearGradient id="paint14_linear_0_197" x1="29.5782" y1="44.5177" x2="29.5782" y2="39.1207" gradientUnits="userSpaceOnUse">
<stop stop-color="#808080" stop-opacity="0.25"/>
<stop offset="0.54" stop-color="#808080" stop-opacity="0.12"/>
<stop offset="1" stop-color="#808080" stop-opacity="0.1"/>
</linearGradient>
<linearGradient id="paint15_linear_0_197" x1="42.8727" y1="48.417" x2="42.8727" y2="43.0182" gradientUnits="userSpaceOnUse">
<stop stop-color="#808080" stop-opacity="0.25"/>
<stop offset="0.54" stop-color="#808080" stop-opacity="0.12"/>
<stop offset="1" stop-color="#808080" stop-opacity="0.1"/>
</linearGradient>
<linearGradient id="paint16_linear_0_197" x1="41.5747" y1="53.5144" x2="41.5747" y2="48.1157" gradientUnits="userSpaceOnUse">
<stop stop-color="#808080" stop-opacity="0.25"/>
<stop offset="0.54" stop-color="#808080" stop-opacity="0.12"/>
<stop offset="1" stop-color="#808080" stop-opacity="0.1"/>
</linearGradient>
<linearGradient id="paint17_linear_0_197" x1="47.5699" y1="52.5142" x2="47.5699" y2="47.1172" gradientUnits="userSpaceOnUse">
<stop stop-color="#808080" stop-opacity="0.25"/>
<stop offset="0.54" stop-color="#808080" stop-opacity="0.12"/>
<stop offset="1" stop-color="#808080" stop-opacity="0.1"/>
</linearGradient>
<linearGradient id="paint18_linear_0_197" x1="44.8732" y1="55.0139" x2="44.8732" y2="49.6151" gradientUnits="userSpaceOnUse">
<stop stop-color="#808080" stop-opacity="0.25"/>
<stop offset="0.54" stop-color="#808080" stop-opacity="0.12"/>
<stop offset="1" stop-color="#808080" stop-opacity="0.1"/>
</linearGradient>
<linearGradient id="paint19_linear_0_197" x1="26.8797" y1="48.417" x2="26.8797" y2="43.0182" gradientUnits="userSpaceOnUse">
<stop stop-color="#808080" stop-opacity="0.25"/>
<stop offset="0.54" stop-color="#808080" stop-opacity="0.12"/>
<stop offset="1" stop-color="#808080" stop-opacity="0.1"/>
</linearGradient>
<linearGradient id="paint20_linear_0_197" x1="22.9813" y1="58.6119" x2="22.9813" y2="53.2149" gradientUnits="userSpaceOnUse">
<stop stop-color="#808080" stop-opacity="0.25"/>
<stop offset="0.54" stop-color="#808080" stop-opacity="0.12"/>
<stop offset="1" stop-color="#808080" stop-opacity="0.1"/>
</linearGradient>
<linearGradient id="paint21_linear_0_197" x1="16.8836" y1="58.9114" x2="16.8836" y2="53.5144" gradientUnits="userSpaceOnUse">
<stop stop-color="#808080" stop-opacity="0.25"/>
<stop offset="0.54" stop-color="#808080" stop-opacity="0.12"/>
<stop offset="1" stop-color="#808080" stop-opacity="0.1"/>
</linearGradient>
<linearGradient id="paint22_linear_0_197" x1="19.9824" y1="57.2122" x2="19.9824" y2="51.8153" gradientUnits="userSpaceOnUse">
<stop stop-color="#808080" stop-opacity="0.25"/>
<stop offset="0.54" stop-color="#808080" stop-opacity="0.12"/>
<stop offset="1" stop-color="#808080" stop-opacity="0.1"/>
</linearGradient>
<linearGradient id="paint23_linear_0_197" x1="33.1762" y1="54.2133" x2="33.1762" y2="48.8163" gradientUnits="userSpaceOnUse">
<stop stop-color="#808080" stop-opacity="0.25"/>
<stop offset="0.54" stop-color="#808080" stop-opacity="0.12"/>
<stop offset="1" stop-color="#808080" stop-opacity="0.1"/>
</linearGradient>
<linearGradient id="paint24_linear_0_197" x1="33.1762" y1="47.8161" x2="33.1762" y2="42.4191" gradientUnits="userSpaceOnUse">
<stop stop-color="#808080" stop-opacity="0.25"/>
<stop offset="0.54" stop-color="#808080" stop-opacity="0.12"/>
<stop offset="1" stop-color="#808080" stop-opacity="0.1"/>
</linearGradient>
<linearGradient id="paint25_linear_0_197" x1="36.1751" y1="52.9136" x2="36.1751" y2="47.5166" gradientUnits="userSpaceOnUse">
<stop stop-color="#808080" stop-opacity="0.25"/>
<stop offset="0.54" stop-color="#808080" stop-opacity="0.12"/>
<stop offset="1" stop-color="#808080" stop-opacity="0.1"/>
</linearGradient>
<linearGradient id="paint26_linear_0_197" x1="33.4766" y1="42.7187" x2="33.4766" y2="37.3199" gradientUnits="userSpaceOnUse">
<stop stop-color="#808080" stop-opacity="0.25"/>
<stop offset="0.54" stop-color="#808080" stop-opacity="0.12"/>
<stop offset="1" stop-color="#808080" stop-opacity="0.1"/>
</linearGradient>
<linearGradient id="paint27_linear_0_197" x1="34.0774" y1="45.418" x2="34.0774" y2="40.0193" gradientUnits="userSpaceOnUse">
<stop stop-color="#808080" stop-opacity="0.25"/>
<stop offset="0.54" stop-color="#808080" stop-opacity="0.12"/>
<stop offset="1" stop-color="#808080" stop-opacity="0.1"/>
</linearGradient>
<linearGradient id="paint28_linear_0_197" x1="37.276" y1="47.2171" x2="37.276" y2="41.8183" gradientUnits="userSpaceOnUse">
<stop stop-color="#808080" stop-opacity="0.25"/>
<stop offset="0.54" stop-color="#808080" stop-opacity="0.12"/>
<stop offset="1" stop-color="#808080" stop-opacity="0.1"/>
</linearGradient>
<linearGradient id="paint29_linear_0_197" x1="40.5736" y1="46.716" x2="40.5736" y2="41.3191" gradientUnits="userSpaceOnUse">
<stop stop-color="#808080" stop-opacity="0.25"/>
<stop offset="0.54" stop-color="#808080" stop-opacity="0.12"/>
<stop offset="1" stop-color="#808080" stop-opacity="0.1"/>
</linearGradient>
<linearGradient id="paint30_linear_0_197" x1="39.6732" y1="49.4154" x2="39.6732" y2="44.0184" gradientUnits="userSpaceOnUse">
<stop stop-color="#808080" stop-opacity="0.25"/>
<stop offset="0.54" stop-color="#808080" stop-opacity="0.12"/>
<stop offset="1" stop-color="#808080" stop-opacity="0.1"/>
</linearGradient>
<linearGradient id="paint31_linear_0_197" x1="28.3782" y1="45.9173" x2="28.3782" y2="40.5203" gradientUnits="userSpaceOnUse">
<stop stop-color="#808080" stop-opacity="0.25"/>
<stop offset="0.54" stop-color="#808080" stop-opacity="0.12"/>
<stop offset="1" stop-color="#808080" stop-opacity="0.1"/>
</linearGradient>
<linearGradient id="paint32_linear_0_197" x1="20.5814" y1="54.1135" x2="20.5814" y2="48.7165" gradientUnits="userSpaceOnUse">
<stop stop-color="#808080" stop-opacity="0.25"/>
<stop offset="0.54" stop-color="#808080" stop-opacity="0.12"/>
<stop offset="1" stop-color="#808080" stop-opacity="0.1"/>
</linearGradient>
<linearGradient id="paint33_linear_0_197" x1="25.2795" y1="49.6151" x2="25.2795" y2="44.2181" gradientUnits="userSpaceOnUse">
<stop stop-color="#808080" stop-opacity="0.25"/>
<stop offset="0.54" stop-color="#808080" stop-opacity="0.12"/>
<stop offset="1" stop-color="#808080" stop-opacity="0.1"/>
</linearGradient>
<linearGradient id="paint34_linear_0_197" x1="15.6837" y1="57.3121" x2="15.6837" y2="51.9151" gradientUnits="userSpaceOnUse">
<stop stop-color="#808080" stop-opacity="0.25"/>
<stop offset="0.54" stop-color="#808080" stop-opacity="0.12"/>
<stop offset="1" stop-color="#808080" stop-opacity="0.1"/>
</linearGradient>
<linearGradient id="paint35_linear_0_197" x1="41.5747" y1="55.2136" x2="41.5747" y2="49.8148" gradientUnits="userSpaceOnUse">
<stop stop-color="#808080" stop-opacity="0.25"/>
<stop offset="0.54" stop-color="#808080" stop-opacity="0.12"/>
<stop offset="1" stop-color="#808080" stop-opacity="0.1"/>
</linearGradient>
<linearGradient id="paint36_linear_0_197" x1="29.4783" y1="40.0193" x2="29.4783" y2="34.6223" gradientUnits="userSpaceOnUse">
<stop stop-color="#808080" stop-opacity="0.25"/>
<stop offset="0.54" stop-color="#808080" stop-opacity="0.12"/>
<stop offset="1" stop-color="#808080" stop-opacity="0.1"/>
</linearGradient>
<linearGradient id="paint37_linear_0_197" x1="24.5806" y1="46.2168" x2="24.5806" y2="40.8198" gradientUnits="userSpaceOnUse">
<stop stop-color="#808080" stop-opacity="0.25"/>
<stop offset="0.54" stop-color="#808080" stop-opacity="0.12"/>
<stop offset="1" stop-color="#808080" stop-opacity="0.1"/>
</linearGradient>
<linearGradient id="paint38_linear_0_197" x1="20.6813" y1="50.8151" x2="20.6813" y2="45.4181" gradientUnits="userSpaceOnUse">
<stop stop-color="#808080" stop-opacity="0.25"/>
<stop offset="0.54" stop-color="#808080" stop-opacity="0.12"/>
<stop offset="1" stop-color="#808080" stop-opacity="0.1"/>
</linearGradient>
<linearGradient id="paint39_linear_0_197" x1="23.4805" y1="55.9125" x2="23.4805" y2="50.5155" gradientUnits="userSpaceOnUse">
<stop stop-color="#808080" stop-opacity="0.25"/>
<stop offset="0.54" stop-color="#808080" stop-opacity="0.12"/>
<stop offset="1" stop-color="#808080" stop-opacity="0.1"/>
</linearGradient>
<linearGradient id="paint40_linear_0_197" x1="27.2782" y1="52.5142" x2="27.2782" y2="47.1172" gradientUnits="userSpaceOnUse">
<stop stop-color="#808080" stop-opacity="0.25"/>
<stop offset="0.54" stop-color="#808080" stop-opacity="0.12"/>
<stop offset="1" stop-color="#808080" stop-opacity="0.1"/>
</linearGradient>
<linearGradient id="paint41_linear_0_197" x1="29.2786" y1="55.9125" x2="29.2786" y2="50.5155" gradientUnits="userSpaceOnUse">
<stop stop-color="#808080" stop-opacity="0.25"/>
<stop offset="0.54" stop-color="#808080" stop-opacity="0.12"/>
<stop offset="1" stop-color="#808080" stop-opacity="0.1"/>
</linearGradient>
<linearGradient id="paint42_linear_0_197" x1="49.9697" y1="58.9114" x2="49.9697" y2="53.5144" gradientUnits="userSpaceOnUse">
<stop stop-color="#808080" stop-opacity="0.25"/>
<stop offset="0.54" stop-color="#808080" stop-opacity="0.12"/>
<stop offset="1" stop-color="#808080" stop-opacity="0.1"/>
</linearGradient>
<linearGradient id="paint43_linear_0_197" x1="46.1712" y1="58.3123" x2="46.1712" y2="52.9136" gradientUnits="userSpaceOnUse">
<stop stop-color="#808080" stop-opacity="0.25"/>
<stop offset="0.54" stop-color="#808080" stop-opacity="0.12"/>
<stop offset="1" stop-color="#808080" stop-opacity="0.1"/>
</linearGradient>
<linearGradient id="paint44_linear_0_197" x1="38.8745" y1="58.6119" x2="38.8745" y2="53.2149" gradientUnits="userSpaceOnUse">
<stop stop-color="#808080" stop-opacity="0.25"/>
<stop offset="0.54" stop-color="#808080" stop-opacity="0.12"/>
<stop offset="1" stop-color="#808080" stop-opacity="0.1"/>
</linearGradient>
<linearGradient id="paint45_linear_0_197" x1="30.7781" y1="58.9114" x2="30.7781" y2="53.5144" gradientUnits="userSpaceOnUse">
<stop stop-color="#808080" stop-opacity="0.25"/>
<stop offset="0.54" stop-color="#808080" stop-opacity="0.12"/>
<stop offset="1" stop-color="#808080" stop-opacity="0.1"/>
</linearGradient>
<linearGradient id="paint46_linear_0_197" x1="29.9775" y1="48.1157" x2="29.9775" y2="42.7187" gradientUnits="userSpaceOnUse">
<stop stop-color="#808080" stop-opacity="0.25"/>
<stop offset="0.54" stop-color="#808080" stop-opacity="0.12"/>
<stop offset="1" stop-color="#808080" stop-opacity="0.1"/>
</linearGradient>
<linearGradient id="paint47_linear_0_197" x1="32.6778" y1="51.5157" x2="32.6778" y2="46.117" gradientUnits="userSpaceOnUse">
<stop stop-color="#808080" stop-opacity="0.25"/>
<stop offset="0.54" stop-color="#808080" stop-opacity="0.12"/>
<stop offset="1" stop-color="#808080" stop-opacity="0.1"/>
</linearGradient>
<linearGradient id="paint48_linear_0_197" x1="28.1786" y1="43.2179" x2="28.1786" y2="37.8209" gradientUnits="userSpaceOnUse">
<stop stop-color="#808080" stop-opacity="0.25"/>
<stop offset="0.54" stop-color="#808080" stop-opacity="0.12"/>
<stop offset="1" stop-color="#808080" stop-opacity="0.1"/>
</linearGradient>
<linearGradient id="paint49_linear_0_197" x1="31.1775" y1="43.5174" x2="31.1775" y2="38.1205" gradientUnits="userSpaceOnUse">
<stop stop-color="#808080" stop-opacity="0.25"/>
<stop offset="0.54" stop-color="#808080" stop-opacity="0.12"/>
<stop offset="1" stop-color="#808080" stop-opacity="0.1"/>
</linearGradient>
<linearGradient id="paint50_linear_0_197" x1="36.1751" y1="44.9171" x2="36.1751" y2="39.5201" gradientUnits="userSpaceOnUse">
<stop stop-color="#808080" stop-opacity="0.25"/>
<stop offset="0.54" stop-color="#808080" stop-opacity="0.12"/>
<stop offset="1" stop-color="#808080" stop-opacity="0.1"/>
</linearGradient>
<linearGradient id="paint51_linear_0_197" x1="22.68" y1="49.3156" x2="22.68" y2="43.9186" gradientUnits="userSpaceOnUse">
<stop stop-color="#808080" stop-opacity="0.25"/>
<stop offset="0.54" stop-color="#808080" stop-opacity="0.12"/>
<stop offset="1" stop-color="#808080" stop-opacity="0.1"/>
</linearGradient>
<linearGradient id="paint52_linear_0_197" x1="24.5806" y1="52.8137" x2="24.5806" y2="47.4167" gradientUnits="userSpaceOnUse">
<stop stop-color="#808080" stop-opacity="0.25"/>
<stop offset="0.54" stop-color="#808080" stop-opacity="0.12"/>
<stop offset="1" stop-color="#808080" stop-opacity="0.1"/>
</linearGradient>
<linearGradient id="paint53_linear_0_197" x1="25.8804" y1="56.9127" x2="25.8804" y2="51.5157" gradientUnits="userSpaceOnUse">
<stop stop-color="#808080" stop-opacity="0.25"/>
<stop offset="0.54" stop-color="#808080" stop-opacity="0.12"/>
<stop offset="1" stop-color="#808080" stop-opacity="0.1"/>
</linearGradient>
<linearGradient id="paint54_linear_0_197" x1="33.4757" y1="55.6129" x2="33.4757" y2="50.216" gradientUnits="userSpaceOnUse">
<stop stop-color="#808080" stop-opacity="0.25"/>
<stop offset="0.54" stop-color="#808080" stop-opacity="0.12"/>
<stop offset="1" stop-color="#808080" stop-opacity="0.1"/>
</linearGradient>
<linearGradient id="paint55_linear_0_197" x1="41.2734" y1="53.2149" x2="41.2734" y2="47.8161" gradientUnits="userSpaceOnUse">
<stop stop-color="#808080" stop-opacity="0.25"/>
<stop offset="0.54" stop-color="#808080" stop-opacity="0.12"/>
<stop offset="1" stop-color="#808080" stop-opacity="0.1"/>
</linearGradient>
<linearGradient id="paint56_linear_0_197" x1="43.7722" y1="51.1146" x2="43.7722" y2="45.7176" gradientUnits="userSpaceOnUse">
<stop stop-color="#808080" stop-opacity="0.25"/>
<stop offset="0.54" stop-color="#808080" stop-opacity="0.12"/>
<stop offset="1" stop-color="#808080" stop-opacity="0.1"/>
</linearGradient>
<linearGradient id="paint57_linear_0_197" x1="47.6697" y1="55.9125" x2="47.6697" y2="50.5155" gradientUnits="userSpaceOnUse">
<stop stop-color="#808080" stop-opacity="0.25"/>
<stop offset="0.54" stop-color="#808080" stop-opacity="0.12"/>
<stop offset="1" stop-color="#808080" stop-opacity="0.1"/>
</linearGradient>
<linearGradient id="paint58_linear_0_197" x1="35.075" y1="59.2109" x2="35.075" y2="53.814" gradientUnits="userSpaceOnUse">
<stop stop-color="#808080" stop-opacity="0.25"/>
<stop offset="0.54" stop-color="#808080" stop-opacity="0.12"/>
<stop offset="1" stop-color="#808080" stop-opacity="0.1"/>
</linearGradient>
<linearGradient id="paint59_linear_0_197" x1="21.1832" y1="58.0128" x2="21.1832" y2="52.614" gradientUnits="userSpaceOnUse">
<stop stop-color="#808080" stop-opacity="0.25"/>
<stop offset="0.54" stop-color="#808080" stop-opacity="0.12"/>
<stop offset="1" stop-color="#808080" stop-opacity="0.1"/>
</linearGradient>
<linearGradient id="paint60_linear_0_197" x1="17.283" y1="54.5129" x2="17.283" y2="49.1159" gradientUnits="userSpaceOnUse">
<stop stop-color="#808080" stop-opacity="0.25"/>
<stop offset="0.54" stop-color="#808080" stop-opacity="0.12"/>
<stop offset="1" stop-color="#808080" stop-opacity="0.1"/>
</linearGradient>
<linearGradient id="paint61_linear_0_197" x1="22.3804" y1="52.8137" x2="22.3804" y2="47.4167" gradientUnits="userSpaceOnUse">
<stop stop-color="#808080" stop-opacity="0.25"/>
<stop offset="0.54" stop-color="#808080" stop-opacity="0.12"/>
<stop offset="1" stop-color="#808080" stop-opacity="0.1"/>
</linearGradient>
<linearGradient id="paint62_linear_0_197" x1="19.5821" y1="48.7165" x2="19.5821" y2="43.3177" gradientUnits="userSpaceOnUse">
<stop stop-color="#808080" stop-opacity="0.25"/>
<stop offset="0.54" stop-color="#808080" stop-opacity="0.12"/>
<stop offset="1" stop-color="#808080" stop-opacity="0.1"/>
</linearGradient>
<linearGradient id="paint63_linear_0_197" x1="21.9811" y1="44.9171" x2="21.9811" y2="39.5201" gradientUnits="userSpaceOnUse">
<stop stop-color="#808080" stop-opacity="0.25"/>
<stop offset="0.54" stop-color="#808080" stop-opacity="0.12"/>
<stop offset="1" stop-color="#808080" stop-opacity="0.1"/>
</linearGradient>
<linearGradient id="paint64_linear_0_197" x1="42.8718" y1="58.9114" x2="42.8718" y2="53.5144" gradientUnits="userSpaceOnUse">
<stop stop-color="#808080" stop-opacity="0.25"/>
<stop offset="0.54" stop-color="#808080" stop-opacity="0.12"/>
<stop offset="1" stop-color="#808080" stop-opacity="0.1"/>
</linearGradient>
<linearGradient id="paint65_linear_0_197" x1="51.5681" y1="100.795" x2="51.5681" y2="56.2138" gradientUnits="userSpaceOnUse">
<stop stop-color="#808080" stop-opacity="0.25"/>
<stop offset="0.54" stop-color="#808080" stop-opacity="0.12"/>
<stop offset="1" stop-color="#808080" stop-opacity="0.1"/>
</linearGradient>
<linearGradient id="paint66_linear_0_197" x1="7.5374" y1="56.9127" x2="7.5374" y2="99.2896" gradientUnits="userSpaceOnUse">
<stop stop-color="#5FADFF"/>
<stop offset="1" stop-color="#2C93FF"/>
</linearGradient>
<linearGradient id="paint67_linear_0_197" x1="36.3297" y1="56.9127" x2="36.3297" y2="99.2896" gradientUnits="userSpaceOnUse">
<stop stop-color="#5FADFF"/>
<stop offset="1" stop-color="#2C93FF"/>
</linearGradient>
<linearGradient id="paint68_linear_0_197" x1="25.4555" y1="56.9127" x2="25.4555" y2="99.2896" gradientUnits="userSpaceOnUse">
<stop stop-color="#5FADFF"/>
<stop offset="1" stop-color="#2C93FF"/>
</linearGradient>
<linearGradient id="paint69_linear_0_197" x1="18.1843" y1="51.5157" x2="18.1843" y2="46.117" gradientUnits="userSpaceOnUse">
<stop stop-color="#808080" stop-opacity="0.25"/>
<stop offset="0.54" stop-color="#808080" stop-opacity="0.12"/>
<stop offset="1" stop-color="#808080" stop-opacity="0.1"/>
</linearGradient>
<linearGradient id="paint70_linear_0_197" x1="24.9809" y1="43.9186" x2="24.9809" y2="38.5198" gradientUnits="userSpaceOnUse">
<stop stop-color="#808080" stop-opacity="0.25"/>
<stop offset="0.54" stop-color="#808080" stop-opacity="0.12"/>
<stop offset="1" stop-color="#808080" stop-opacity="0.1"/>
</linearGradient>
<linearGradient id="paint71_linear_0_197" x1="15.484" y1="55.6129" x2="15.484" y2="50.216" gradientUnits="userSpaceOnUse">
<stop stop-color="#808080" stop-opacity="0.25"/>
<stop offset="0.54" stop-color="#808080" stop-opacity="0.12"/>
<stop offset="1" stop-color="#808080" stop-opacity="0.1"/>
</linearGradient>
<linearGradient id="paint72_linear_0_197" x1="12.2506" y1="37.2789" x2="12.2506" y2="31.8802" gradientUnits="userSpaceOnUse">
<stop stop-color="#808080" stop-opacity="0.25"/>
<stop offset="0.54" stop-color="#808080" stop-opacity="0.12"/>
<stop offset="1" stop-color="#808080" stop-opacity="0.1"/>
</linearGradient>
<linearGradient id="paint73_linear_0_197" x1="159.71" y1="103.79" x2="159.71" y2="48.4651" gradientUnits="userSpaceOnUse">
<stop stop-color="#808080" stop-opacity="0.25"/>
<stop offset="0.54" stop-color="#808080" stop-opacity="0.12"/>
<stop offset="1" stop-color="#808080" stop-opacity="0.1"/>
</linearGradient>
<linearGradient id="paint74_linear_0_197" x1="125.078" y1="50.7758" x2="125.078" y2="101.691" gradientUnits="userSpaceOnUse">
<stop stop-color="#5FADFF"/>
<stop offset="1" stop-color="#2C93FF"/>
</linearGradient>
<linearGradient id="paint75_linear_0_197" x1="122.958" y1="49.9093" x2="122.958" y2="53.3028" gradientUnits="userSpaceOnUse">
<stop stop-color="#5FADFF"/>
<stop offset="1" stop-color="#2C93FF"/>
</linearGradient>
<linearGradient id="paint76_linear_0_197" x1="149.165" y1="82.6994" x2="149.165" y2="65.0768" gradientUnits="userSpaceOnUse">
<stop stop-opacity="0.12"/>
<stop offset="0.55" stop-opacity="0.09"/>
<stop offset="1" stop-opacity="0.02"/>
</linearGradient>
<linearGradient id="paint77_linear_0_197" x1="23.6053" y1="21.8119" x2="23.6053" y2="16.4149" gradientUnits="userSpaceOnUse">
<stop stop-color="#808080" stop-opacity="0.25"/>
<stop offset="0.54" stop-color="#808080" stop-opacity="0.12"/>
<stop offset="1" stop-color="#808080" stop-opacity="0.1"/>
</linearGradient>
<linearGradient id="paint78_linear_0_197" x1="33.3946" y1="10.0658" x2="33.3946" y2="4.66705" gradientUnits="userSpaceOnUse">
<stop stop-color="#808080" stop-opacity="0.25"/>
<stop offset="0.54" stop-color="#808080" stop-opacity="0.12"/>
<stop offset="1" stop-color="#808080" stop-opacity="0.1"/>
</linearGradient>
<linearGradient id="paint79_linear_0_197" x1="52.3847" y1="35.3212" x2="52.3847" y2="29.9225" gradientUnits="userSpaceOnUse">
<stop stop-color="#808080" stop-opacity="0.25"/>
<stop offset="0.54" stop-color="#808080" stop-opacity="0.12"/>
<stop offset="1" stop-color="#808080" stop-opacity="0.1"/>
</linearGradient>
<linearGradient id="paint80_linear_0_197" x1="67.4596" y1="54.5075" x2="67.4596" y2="49.1088" gradientUnits="userSpaceOnUse">
<stop stop-color="#808080" stop-opacity="0.25"/>
<stop offset="0.54" stop-color="#808080" stop-opacity="0.12"/>
<stop offset="1" stop-color="#808080" stop-opacity="0.1"/>
</linearGradient>
<linearGradient id="paint81_linear_0_197" x1="11.467" y1="101.297" x2="11.467" y2="95.9004" gradientUnits="userSpaceOnUse">
<stop stop-color="#808080" stop-opacity="0.25"/>
<stop offset="0.54" stop-color="#808080" stop-opacity="0.12"/>
<stop offset="1" stop-color="#808080" stop-opacity="0.1"/>
</linearGradient>
<linearGradient id="paint82_linear_0_197" x1="7.74601" y1="96.4032" x2="7.74601" y2="91.0062" gradientUnits="userSpaceOnUse">
<stop stop-color="#808080" stop-opacity="0.25"/>
<stop offset="0.54" stop-color="#808080" stop-opacity="0.12"/>
<stop offset="1" stop-color="#808080" stop-opacity="0.1"/>
</linearGradient>
<linearGradient id="paint83_linear_0_197" x1="5.39787" y1="69.9728" x2="5.39787" y2="64.5758" gradientUnits="userSpaceOnUse">
<stop stop-color="#808080" stop-opacity="0.25"/>
<stop offset="0.54" stop-color="#808080" stop-opacity="0.12"/>
<stop offset="1" stop-color="#808080" stop-opacity="0.1"/>
</linearGradient>
<linearGradient id="paint84_linear_0_197" x1="56.2992" y1="99.1436" x2="56.2992" y2="93.7466" gradientUnits="userSpaceOnUse">
<stop stop-color="#808080" stop-opacity="0.25"/>
<stop offset="0.54" stop-color="#808080" stop-opacity="0.12"/>
<stop offset="1" stop-color="#808080" stop-opacity="0.1"/>
</linearGradient>
<linearGradient id="paint85_linear_0_197" x1="61.1943" y1="96.0127" x2="61.1943" y2="90.614" gradientUnits="userSpaceOnUse">
<stop stop-color="#808080" stop-opacity="0.25"/>
<stop offset="0.54" stop-color="#808080" stop-opacity="0.12"/>
<stop offset="1" stop-color="#808080" stop-opacity="0.1"/>
</linearGradient>
<linearGradient id="paint86_linear_0_197" x1="61.7826" y1="99.732" x2="61.7826" y2="94.3332" gradientUnits="userSpaceOnUse">
<stop stop-color="#808080" stop-opacity="0.25"/>
<stop offset="0.54" stop-color="#808080" stop-opacity="0.12"/>
<stop offset="1" stop-color="#808080" stop-opacity="0.1"/>
</linearGradient>
<linearGradient id="paint87_linear_0_197" x1="51.602" y1="99.732" x2="51.602" y2="94.3332" gradientUnits="userSpaceOnUse">
<stop stop-color="#808080" stop-opacity="0.25"/>
<stop offset="0.54" stop-color="#808080" stop-opacity="0.12"/>
<stop offset="1" stop-color="#808080" stop-opacity="0.1"/>
</linearGradient>
</defs>
</svg>
