<svg width="24" height="24" viewBox="0 0 24 24" fill="none" xmlns="http://www.w3.org/2000/svg">
<path fill-rule="evenodd" clip-rule="evenodd" d="M4 20H21C21.5523 20 22 20.4477 22 21C22 21.5523 21.5523 22 21 22H3C2.44772 22 2 21.5523 2 21V3C2 2.44772 2.44772 2 3 2C3.55228 2 4 2.44772 4 3V20ZM9 14.5C9 15.3284 8.32843 16 7.5 16C6.67157 16 6 15.3284 6 14.5C6 13.6716 6.67157 13 7.5 13L10.5 10C10.5 9.17157 11.1716 8.5 12 8.5C12.8284 8.5 13.5 9.17157 13.5 10L15.23 11.76H15.39L19 8.15C18.9951 8.10012 18.9951 8.04988 19 8C19 7.17157 19.6716 6.5 20.5 6.5C21.3284 6.5 22 7.17157 22 8C22 8.82843 21.3284 9.5 20.5 9.5L16.86 13.17V13.25C16.86 14.0784 16.1884 14.75 15.36 14.75C14.5316 14.75 13.86 14.0784 13.86 13.25V13.17L12.25 11.56H12.02H11.79L9 14.35C9.00488 14.3999 9.00488 14.4501 9 14.5Z" fill="#CDCED1"/>
</svg>
