<svg width="24" height="24" viewBox="0 0 24 24" fill="none" xmlns="http://www.w3.org/2000/svg">
<path fill-rule="evenodd" clip-rule="evenodd" d="M21 4H18V3C18 2.44772 17.5523 2 17 2H7C6.44772 2 6 2.44772 6 3V4H3C2.44772 4 2 4.44772 2 5V8C2 10.2091 3.79086 12 6 12H7.54C8.44453 13.0091 9.66406 13.6824 11 13.91V16H10C8.34315 16 7 17.3431 7 19V21C7 21.5523 7.44772 22 8 22H16C16.5523 22 17 21.5523 17 21V19C17 17.3431 15.6569 16 14 16H13V13.91C14.3359 13.6824 15.5555 13.0091 16.46 12H18C20.2091 12 22 10.2091 22 8V5C22 4.44772 21.5523 4 21 4ZM6 10C4.89543 10 4 9.10457 4 8V6H6V8C6.0022 8.68171 6.12056 9.35806 6.35 10H6ZM15 19C15 18.4477 14.5523 18 14 18H10C9.44772 18 9 18.4477 9 19V20H15V19ZM16 8C16 10.2091 14.2091 12 12 12C9.79086 12 8 10.2091 8 8V4H16V8ZM18 10C19.1046 10 20 9.10457 20 8V6H18V8C17.9978 8.68171 17.8794 9.35806 17.65 10H18Z" fill="#1F8CFF"/>
</svg>
